<svg id="Layer_1" xmlns="http://www.w3.org/2000/svg" viewBox="0 0 2562.1 1441.9"><style>.st0{fill:#050505}</style><path class="st0" d="M1428 548.4c-5.8-5.7-11.3-11.6-17-17.5-1.3-1.3-1.8-1.7.1-3.8 3-3.3 2.4-8.7 3.6-13.1.5-1.6.7-3.2 1.9-4.4-.1-1-.2-1.9-.2-2.8-.2-.5-.4-1.1-.4-1.8-.7-11.5 6.8-22.7 10.9-33 2.8-7.1 7.5-19.3-2.2-23.1-10.6-4.1-26.4-2.5-36.1-8.3-4.3-.7-8.6-1.3-13-1.9-1.7-.2-3.1-.7-1.7-2.8s.5-4.5 1.2-6.7c.9-3.2 1.5-5.9 5.1-5.9.5-1.7 2-2.7 3.7-3v-.2c2.4-13.5 4.8-26.9 7.3-40.3.6-3.3-.3-4.6-3.9-4.2-5.3.5-10.7.3-16 .9-3.8.4-4.6-1.1-4.2-4.5.9-7.9 1.5-15.9 2.4-23.9.4-3.5-.1-5.1-4.3-4.9-13.6.7-27.3.9-41 1.3-2.5.1-5 .2-6.8 2.4-1.3 1.6-3.2 1.7-5 1.7-11 .2-22 .3-33 .6-1.2 0-2.1-.1-2.7-.5h-19.4c-.5.3-1.1.5-1.8.4-5-.5-7.1 3-9.2 6.3-4.3 6.6-10.9 3.6-16.5 3.5-1.2 0-2-.4-2.6-.9-8.5-.8-15.8-6-24.3-7.5-.8-.1-1.5-.5-2.1-.9-5.9-.7-11.8-1.3-17.6-1.6-5.7-.3-11-2.5-16.4-3.7-11-2.3-21.7-6.9-33.1-6.1-5.2.3-10.3 2.5-15.5 3.8-.5.1-.9.2-1.3.3-4.8 2.2-9.5 4.9-13.2 8.6-3.6 7.8-4.5 18.5-5.1 25.2-.3 3.4-.5 6.9-.9 10.3-.8 5.9-2.7 12.2-.8 18 2.9 9.1 11.9 14.8 19.9 20.6.6-.3 1.6-.2 2.9.5 13 5.7 26 3.9 39 .3 5.2-1.4 10.2-.9 15.3-.3 1.1.1 2.6.3 2.6 1.8s-1.2 1.7-2.4 1.9l-.1.1c-11.1 1.8-22.3 3.8-33.4 5.3-4.2.6-5.4 2-4.2 6.1 2.3 8 4.2 16 6.1 24.1.8 3.6 2.1 5.9 6.3 4.1 2.4-1 3.7-.3 4.4 2.2 1.3 5.3 2.7 10.6 4.1 15.9.2.5.6 1.2.5 1.3-4.4 3.2-8.7 7.8-14.1 7.6-7.9-.3-15.9-.2-23.8-.4-4.5-.1-7.2-1.5-8-4-4.7-3.8-8.8-9.5-12.4-13.1-8-7.8-20.5-9.4-31.7-8.7-1.4.3-3.5.6-6.1.9-25.3 2.8-50.6 5.2-76 7.8-5.3.5-10.6 1-15.9 1.7-.9.1-1.7.2-2.5.1-3.5.8-6.7 2.2-6.6 6.2.1 5 3.1 10.1 5.5 14.3 3.1 5.5 6.6 10.7 9.9 16 1.2 1.9 2.5 4 3.5 6.1h.9c4.2.4 2.9 3.9 3.1 6.2.2 4.3.1 8.6.1 12.9h.4c.2 4.5.2 9 .7 13.4.4 3.6-1.2 4.8-4.5 4.8-1.7 0-3.3.1-5 .2-4.4.5-6.7.7-7.6-.2-1 .5-1.8 1.3-2.5 2.1.4 2.4.6 4.8.5 7 .2 2.6.3 5.3.5 7.9.1 2-1.2 2.7-2.8 2.7-.9 0-1.3-.2-1.5-.6-1 1.1-2.6 1.6-4.1 1.6-5.7 3.4-12.4 6.1-19.1 7.6-1 .5-2 .8-3.1.9-4.5.9-9 2.3-13.2 4.2-2.1.9-3.3 2.1-3.2 4.4.1 5.3-.2 10.6 1.2 15.9.7 2.8 1.6 4.6 3.9 5 1.2-.1 2.4-.1 3.5 0 .6 0 1.2.1 1.6.3 9.1 2 13.8 12.4 15 21.4.7 5.7-.6 10.6-1.1 16.2-.3 4.3 1.6 8.6 3.8 12.7 5.3 5.7 11.2 5.7 18.6 3.9 18.1-4.5 36.4-7.9 54.6-11.8 3.3-.7 7.5 1.8 8.2 5 .4 1.9-1.3 2.1-2.3 2.6-6.2 2.9-12.3 5.9-18.5 8.7-2.7 1.2-4.3 2.8-4.8 5.8-.4 2.3-1 4.6-1.8 6.7-2.8 7.4-3.3 14.8-.2 22.3 1.4 3.3 1 5.8-2.9 7-3.4 1-3.7 3-2 6 2.4 4.2 4.5 8.5 6.5 12.9 3 6.8 6.3 13.2 14.4 15.2.5.1.9.8 1.3 1.2l-.2 1.6c-9.2 0-19.5 2.6-27.4-.6-11.3-4.7-21.5-.5-32-.4-7.3.1-13.8-.5-19.9-4.2-3.1-2-6.7-3.2-10.3-3.6-13.3.4-25.8 6.6-38.8 7.7-2.1 1-4.7 1.5-8 1.6-7.2.1-14.3.1-21.5 0-3.8-.1-7.6.9-10.8 3-2.7 1.7-5.7 5.5-9.8 2.5-3-2.1-6.3-3.8-8.7-6.6-1.9-2.2-4.2-2.8-7.1-3-7.7-.5-15.3 1.2-22.2 4.7-3.9 1.9-7.2 1.7-10.2-2-3.8-4.8-9.2-7.1-15.1-7.9-11.8-1.5-23.5 1-35.3.4-.2 0-.3 0-.5.1-10.9 4.2-23 5.5-32.8 12.8-4.9 3.6-11.1 5.7-14.6 11-6.6 9.9-12.2 20.2-9.9 32.8.2 1.5.2 3 0 4.5-.1 2.7.7 5.3 2.3 7.5 5.1 7.4 10.1 14.5 17.6 20 8.4 6.3 17.9 9.8 27.6 11.6 8.8 1.7 18.3 1 27.4.2 11-1.1 22.1-2.5 31.4-10 2.3-1.8 5.4-4.2 9.1-1.8 3.5 2.3 7.5 3.8 11.6 4.3 2.7.4 4 1.8 4.2 4.6.4 4.6 1.3 9.2 1.6 13.8.2 2.8 1.3 4.2 4.2 4.4 3.3.3 4.9 2.2 4.9 5.7 0 6.3-.4 12.6.9 18.9.6 2.9-.2 5.3-4 5.3-3.1 0-4 1.5-3.3 4.5 1.3 5 1.7 10.2 1.3 15.4-.5 5.2 3 6.3 6.5 5.7 5.8-1 11.6-.3 17.4-1.3.4-.1.9-.1 1.3-.2.6-.3 1.3-.4 2-.4 14.7-.1 29.3-2.6 44-2.7.6 0 1.2.1 1.7.3 1.5-.1 3.1.1 4.8.4 1.4.3 1.8 1 2.1 2.3.5 2-.1 3-1.8 4-6.8 3.9-12.7 9.4-17 15.9-11 16.8-9.5 37.9 3.5 53.9 4.1 4.9 8.8 9.2 14 13-12.8 1.7-23.5 5.1-34.2 8.9-2.8.9-5.3 2.7-7 5.2-1.9 2.7-4 5.3-6.2 7.8-4.1 4.3-5.1 9.3-5.6 15.3-.7 8.8 3 14.9 8.5 20.7 2.8 2.9 3.2 5.7 1.2 9.4-2.4 4.3-1.3 9.4-1.7 14.2.1.8.5 1.6 1.2 2.1 6.9 5.1 13.3 10.5 22.2 12.8 11.9 3.1 23.8 2.4 35.7 2.3 5 0 9.4-3.2 13.9-5.2 3.8-1.6 7.2-2.2 10.9-.1 5.1 2.8 10.6 3.3 16.4 3.3 11.8 0 23.7.6 34.4-5.8 1.6-.9 3.6-1 5.3-.4 12.4 3.5 24.2 2.4 35.3-4.5 2.4-1.5 4.8-1.4 7.6-.7 14 3.6 28.1 6.7 42.1 10.3 3.8 1 5.9.3 6.2-3.6.3-4.3 2.8-5 6.4-4.8 5.7.2 11.3 0 17 .1 2.8 0 6-1 7.9 2.6.6 1.2 2.5.6 3.8.6h21.8c.5-.1 1-.2 1.6-.2h12.4c.1-1.1.5-2 1.1-2.7-1.6-.8-.4-2.6-.8-4.6 2 .8 3.8 1 3.6 2.8 1.5-.4 3.2 0 4.6 1.3 1.9 1.7 4 2.6 6.4 3.2h7.5c.9-.4 1.9-.6 3.2-.6 11.3-.4 22.6-1.3 33.9-1.9 3.5-.2 4.7-1.3 3.9-4.9-.9-4.4-1.2-8.9-1.9-13.3-.2-1.3-.2-2.3.2-3-1.7-15.8-6-31.7-3.7-47.6-1.3-.7-2.3-2.2-3.2-4.5 1.7-1.2 1.7-1.3-.2-2.9-1.1-.9-3.1-1.3-2.3-3.2.9-2.2 2.8-.6 4.3-.7 4.7-1.4 9.6-.7 14.4-.8 1.6 0 3.1.3 3.6 2 1.1 3.6 3.6 2.9 6.4 2.4 18.1-3.5 36.2-6.9 54.2-10.3 7-1.3 14-2.8 21-4.2 2.4-.5 3.7-1.5 3.2-4.5-1.4-7.3-2.4-14.7-3.5-22.1-.2-1.7-1.4-3.1-3.1-3.5-6.9-2.6-9.7-7.4-8.9-14.5.2-1.3-.2-2.8.3-4 4.2-9.9-1-17.5-5.9-25.3-.8-1.5-2.1-2.6-3.8-3-12.3-2.4-24.5-6-37.2-1.6-3.8 1.5-7.9 1.8-11.8.9-5.8 2.8-12.2 2.9-18.4 4.2-3.3.7-6.9.8-5.9 5.8.1.5-.1 1-.3 1.4-1.3 2.1-15 4.5-16.8 2.7-5.1-4.8-11.5-7.2-17.9-9.7-2.5-1-3.8-2.2-3.6-5.1.3-3.4 2.8-2.1 4.5-2.4 10.5-1.9 8.7.5 8.5-10.1-.3-11.7-.8-23.3-1.4-35-.2-3 .7-4.2 3.7-4.3 4.3-.2 8.6-1 12.9-1.1 3.8-.1 5.3-1.4 4.8-5.5-1.1-8.4-1.7-16.9-2.7-25.3-.4-3.7.1-5.9 4.6-5.2 4.5.6 9.1 0 13.2-1.9 3-1.3 4.2-.3 4.2 2.9 0 2.8.7 5.6.8 8.5.1 3.1 1.6 3.8 4.5 3.5 10.1-1 20.2-1.6 30.4-2.4 3.3-1.5 6.9-1.2 10.3-1.2 3.2 0 4.6-1.3 4.4-4.5-.1-2.2-.1-4.3 0-6.5.2-4 1.7-4.8 4.9-2.4 3.7 2.9 7.2 5.9 10.6 9.1 3.2 3 6.8 3.8 11 3.2 5.4-.8 10.9-1.5 16.3-1.8 3.3-.2 4.3-1.6 3.9-4.8-2-16.5-3.8-33-5.7-49.5-.4-3.3-.4-6.4 3.9-7.3 2-.5 2.1-2.4 2-4.1-.4-6.5-.7-12.9-1.2-19.4-.2-2.8-1.3-4.4-4.9-4-5 .6-7.2-2.8-5.3-7.7 1.5-4.1 3.3-8 5.4-11.8 2-3.5 1.8-6.9.8-10.5-2.8-10.3-5.8-20.5-4.7-31.4.2-2.3 0-4.7 1.2-6.8-2.3-2.6-1.2-5.7-1.2-8.6 0-2.3-.7-3.3-3-3.6-9.4-1.2-18.6-3.8-28.2-3.1-2.2.2-3.1-.6-3.1-2.7l.6-33.5c0-2.4 1.3-3.2 3.6-3 15.7 1.6 31.5 3.2 47.2 4.8 10.7-.3 21.2 1.8 31.8 2.4 4.6.3 9.2 1.2 13.8 1.5 8.1.6 15.2-4.5 17.9-12.3 1.3-3.8-1.2-5.7-3.6-7.4-3.4-2.4-5.8-4.7-3.5-9.3 3-6.2 5.8-8.3 11.2-7.7 9.2 1 9.3 1.1 13.3-7.2s8-16.8 11.9-25.2c1.6-3.4 4.1-6 6.3-9 .3-5-2.9-8-6.1-11.1zm-254.6-174.9c-1.2 3.6-5.7 5-9.6 2.9-2.8-1.5-5-3.9-7.2-6.1-3.2-3-6.7-5.5-11.3-5.8-2.4-.2-4.9 0-5.8 2.7-.8 2.6 1.1 4.1 3.1 5.1 3.4 1.7 6.9 3.2 10.5 4.6 4.8 1.9 9.3 4.6 13.2 8 6.5 5.8 6.8 14.9.9 21.3-6.3 6.8-14.7 7.9-22.2 8.2-11-.2-21.9-2.6-32-7.1-6.7-2.9-10.3-11.4-8.3-18.5 1.2-4.1 5.6-5.1 8.6-1.8 1.5 1.8 2.8 3.7 3.9 5.8 4.3 6.9 11.1 9.2 18.7 9.5 2.2.1 4.7-.2 5.2-2.8.6-2.3-1.6-3.5-3.3-4.4-5.4-2.9-11.4-4.8-16.4-8.4-6.7-4.8-12.6-10.3-11.3-19.6 1-7 8.9-12.6 18.7-14.2 7.1-1.2 14.4-.6 21.2 1.6 4.4 1.3 8.6 3 13.5 3 5.8 0 11.9 10.3 9.9 16zM791.2 806.2c-2.3 12.2-9.7 20.1-20.9 24-14.2 5-28.6 6.3-42.7-.6-20.7-10-29.5-40.7-4.8-58 10.2-7.1 21.3-10.7 33.8-10 4.8.2 9.6.4 14.3 1.7 6.3 1.8 10.7 6.5 10.4 11.2-.3 5.1-5.7 9.7-12.4 10.3-2.2.2-4.3.2-6.5 0-5.4-.3-7.7-2.7-7.9-8.2-.3-8.3-3.7-10.3-11.2-6.2-7 3.7-9.2 10.3-9.2 17.6.1 10.8 3.6 20.5 11.6 28.3 11.5 11.1 30.6 6.9 36.8-7.9 1-2.4.6-6.3 5-6.3 3.1 0 4.3.9 3.7 4.1zm467.5-388.3c3.5-19.7 6.7-39.4 9.9-59.1.5-3.3 2.1-3.9 5.2-3.3 15.2 2.6 30.6 4.8 45.8 7.3 5.4.9 10.5-1.4 15.8-1 4.3.4 8.6.2 12.9.6 3.7.4 6.9 1.9 7.9 5.8 1 3.6-.8 6.1-4 7.7-1.7.9-1.6 2.4-1.6 3.9 0 4.3 0 8.7.1 13 .1 1.7-.9 4 1.9 4.4 2.4.4 4.7 0 5.9-2.6.7-1.9 2-3.5 3.7-4.6 3.3-1.9 8.4-.4 10.4 3.1 2.8 4.8 1.5 9.4-1.1 13.7-2.3 3.9-5.3 6.9-12.2 6.1-9.4-1.5-20.6-.1-31.7-.7-3.2-.2-4.7.8-5.1 3.8-.8 6-4.3 8.8-10 10.6-16.3 5.2-16.2 5.5-33 .8-5.9-1.6-11.8-3.4-17.7-5-2.4-.5-3.6-1.3-3.1-4.5zm-15.6-45.1c2.3-.2 4.6 0 6.9.6 1.8.4 3.4 1.5 3.5 3.6.1 2.2-1.6 3-3.3 3.7-2.2.9-4.6.5-6.9.7-3.6 0-8.6.5-8.7-4.2-.2-4.9 5.1-4 8.5-4.4zm-11.4 33.5c4.2-3.3 5-11.7 1.7-15.9-1.9-2.4-.9-3.8 1.4-4.4 4.8-1.4 9.8-2 14.8-1.6 3 .3 3.3 2.4 3 4.7-.5 4.5-1.2 8.9-1.8 13.3-.4 2-.1 4 .8 5.8 2.4 4.2 1.6 5.8-3.2 6.3-.8.1-1.7 0-3.6 0-3.4-.5-7.9-.7-12.1-2.4-3-1.4-4.6-3-1-5.8zm-8.2 61.2c2.4-7.5 7.2-10.3 14.9-9.7 11.1.8 22.2 1.2 33.3-.3 6.8-.9 14.1 5.9 13.4 12.6-.4 4.4-5.7 6.8-10.1 4.6-1.8-.9-3.3-2.3-4.2-4.1-1.1-2-2.7-3.1-4.9-2.4-2.4.7-1.7 2.9-1.7 4.6-.1 3.2 0 6.3 0 9.5 0 2.7.1 5.3 0 8-.1 3.5.2 6.7 4.6 7.6 1.4.3 2.4 1.4 2.5 2.8.2 1.8-1.3 2.6-2.5 3.3-.6.4-1.2.6-1.8.7-9.4.9-18.8 1.7-28.2-.7-1.8-.5-3.9-.9-4-3.1s2.1-2.9 3.8-3.2c2.7-.5 3.4-2.4 3.5-4.7.3-7.1.5-14.3.7-21.4 0-1.3.3-2.9-1.3-3.5-1.5-.6-2.9.3-4 1.4-1.9 1.9-3.5 4-6 5.1s-4.9 1.1-7-.8-1.7-4-1-6.3zm26 172.4c-10-2.2-9.9-2.4-13 3.1-.4.7-.8 1.4-1.3 2.2-4.3 7.1-6.1 7.6-13.9 4.3-2.2-.9-1.9-1.9-1-3.4 5.3-9 10.5-18.1 15.9-27.1 1.5-2.5 7.2-2.9 10.4-.9s2.3 4.4.9 6.9c-.5 1-1 2-1.8 3.5 3 1.2 4.8 2.3 7.1-1.5 2-3.4 6.7-.7 10.2-.4 2.4.2 2.7 2.1 2.8 4.1 0 8.3 0 16.6.1 24.9 0 2.5-.9 3.4-3.3 2.7-.3-.1-.6-.2-1-.3-8.9-1.9-8.8-1.9-8.9-11.1-.2-2.5 1.7-6-3.2-7zm-61.1 6.8c1.9 3.2.3 5.1-3.1 5.4-2.3.3-4.7 0-6.8-.8-4.8-2.2-5.3-4.1-1.5-7.8 1-.8 1.8-2 2.1-3.3 1.3-5.8 2.9-11.6 3.4-17.6.3-2.1-.1-4.3-1.1-6.2-2.3-4-1.2-5.8 3.3-5.9 4.7-.1 8.7.9 11.3 5.7 2.5 4.5 5.6 8.6 8.5 12.9.5.8 1 1.8 2.3 1.4s1.4-1.3 1.6-2.3c.5-2.1.4-4.3-.4-6.4-2.1-5-1.3-6.1 4.1-6 2 0 4 .4 5.8 1.2 4 1.9 4.6 4.2 1.2 6.9-3.3 2.6-3.6 6.2-4.3 9.7-1.3 6-2.3 12.1-3.8 18-.5 2.2-1.2 5-3.8 5.4s-3.3-2.3-4.5-4.1c-3.4-5.3-6.8-10.7-10.2-16-.6-1-1.3-2.2-2.6-2s-1.8 1.5-2 2.6c-.4 3.1-1.4 6.1.5 9.2zm64.4-81.2c-3.7 9.8-8.3 19.2-11.7 29.2-.9 2.8-2.6 4.3-5.6 2.5s-7.8-.9-9-5.9c-.3-1.5-2.4-.3-3.6-.2-11.8.8-21.6-6.8-21.7-17.1 0-6.6 3.7-12 5.8-17.9 1.7-4.7 3.5-9.3 5.4-14 1.1-2.6 2.4-3.8 5.7-2.3 11.2 4.9 10.8 2.3 6.4 13.6-2 5.3-4.3 10.5-6.3 15.8-1.9 5.1-.8 8.2 3.3 9.9 4.4 1.9 8.8.5 10.8-4.2 3.1-6.8 5.8-13.8 8.3-20.8 1.2-3.5 2.6-4.3 6.2-2.9 12 4.5 10.5 2.2 6 14.3zm-67.7-150.2c1.8-17.7 3.5-35.4 5.3-53.1.5-4.5 4-2.8 6.6-3.1 3.1-.3 3.6 1.6 3.4 4.1-.3 4-.5 8-.8 11.9-.3 3.2 1.1 3.8 3.2 1.8 5.4-4.9 11.7-3.9 19.5-3.6v.1c-5.9 4.7-10.6 9-15.9 12.5-4 2.6-3.8 4.7-1.3 8.2 5.4 7.3 10.6 14.9 15.8 22.4.7 1.1 2.1 2.1 1.5 3.5-.8 1.8-2.6.7-4 1-6.1 1.1-9.9-1.3-12.9-6.7-1.8-3.4-3.8-7-7.8-10-.3 4.1-.7 7.4-.7 10.7 0 3-1.3 3.8-4 3.6-1.7-.1-3.3-.1-5 0-2.3.2-3.1-1-2.9-3.3zm-18.5 32l1.5-.3c12.4-2.2 24.9-4.4 37.3-6.6 1.4-.2 3.3-1 3.8 1.1.7 2.4-1.3 2.3-3 2.7h-.1c-7 1.3-7.1 1.4-5.9 8.4 2.2 13.3 4.5 26.5 7 39.8.6 3-.2 3.9-3.2 3.7s-6 0-9 0c-15.2-.5-11.9 2.7-15.1-13.1-2-9.8-3.7-19.6-5.4-29.4-.4-2.5-1.2-3.7-3.9-2.9-1.1.2-2.3.4-3.4.5-1.5.3-3.2.8-3.6-1.3s1.7-2.1 3-2.6zm-53.4 130.8c1.8-20.9 3.5-41.8 5-62.7.2-3.6 1.7-4 4.7-3.8 22.6 1.9 45.1 3.8 67.7 5.4 3.9.3 4.6 1.8 4.2 5.3-.8 7.6-1.2 15.3-2 25.9-.8 9.6-1.8 22.2-2.9 34.8-.2 2 .9 4.9-2 5.5-3.1.7-6.4.3-8.7-2.5-2.1-2.5-3.9-5.4-6-8-1.7-2.1-.1-3.5.9-4.8 3.1-3.9 6.1-7.9 8.2-12.5 6.5-14.1 2.9-29.5-9-38.4-11.3-8.5-30.3-7.7-40.7 2.2-8.9 8.5-10.9 19.9-8.8 31.4 2.8 15.4 11.7 22.6 27.7 24.8 2.2.3 4.8.5 4.5 3.4s-3 1.8-4.8 1.7c-11.1-.8-22.2-1.8-33.4-2.5-3.8-.1-4.9-1.5-4.6-5.2zm26.9 236.8c2 .7 4.1 1.8 3.7 4.6-.3 2.5-2.4 3-4.3 3.6-4.9 1.5-9.9 1.2-16.2 1.2-5-.3-11.3-.4-17.5-1.9-1.6-.3-3.2-1-4.5-2-3.1-2.5-3-5.4.7-6.2 6.1-1.2 6.8-5.5 7.2-10.3.5-7 1-13.9 1.4-20.9.1-1.4.3-3.2-1.4-4s-3.2.1-4.6 1.2c-2.2 1.8-4.1 3.9-6.5 5.4-3.2 2-6.6 2.4-9.6-.5s-2.2-6-.5-9.2c4.2-8.3 8.1-10 17.6-9.3 13.7 1.1 27.5 2.3 41.3 1.3 7.5-.6 14.9 7.1 14.2 14.7-.2 2.6-1.2 5-3.8 5.9-3.4 1.2-7 1.3-9.9-1.4-1.5-1.5-2.8-3.2-4-5.1-1.2-1.6-2.7-2.6-4.7-2.2-2.2.5-2.5 2.3-2.6 4.3-.2 7.6-.5 15.3-.9 22.9 0 3.9 1 6.7 4.9 7.9zm-13.8 65.3c3.6 2 7.3 3.8 10.8 6 5.8 3.6 8 8.2 6.8 13.7s-5.7 9.1-12.4 9.8c-1.3.1-2.7.1-4 0-6.4.2-12.5-1.6-18.3-4-3.7-1.5-4.8-9.7-1.7-12 2.4-1.8 4.5-.2 5.9 1.8 2.6 3.7 6.2 5.4 10.3 6.4 1.7.4 4 .8 4.7-1.4.6-2-1.4-2.6-3-3.3-3-1.4-6.1-2.7-9-4.3-5.9-3.2-9.1-9.6-7.8-15.3 1.2-5.3 6.9-9.3 13.7-9.7 6.4-.4 12.1 2 17.8 4.2 2.9 1.1 5 7.9 3.4 10.4-2 3-4.3 1.9-6.1-.3-2.6-3.2-5.5-5.8-9.8-6.3-1.6-.2-3.7-.6-4.2 1.4-.3 1.6 1.6 2.2 2.9 2.9zm-112.6-13.8c0-.5.1-1.2.4-1.4 3.6-1.7 7.1.3 10.6.5 2.2.1 2.1 2.7 1.9 4.5-.4 5.3-1 10.6-1.5 15.9-.3 1.5-.2 3 .3 4.4.6 1.4 1.4 2.8 3.2 2.8 2 0 2.2-1.6 2.5-3.1.9-4.6 1.7-9.2 1.4-12.7v-1.6c.1-9.6 1.4-10.5 11-7.7 2.5.7 3 2.4 2.7 4.6-1 9.2-2.7 18.4-2.2 27.8.1 1-.6 2-1.6 2.2-2.8 1.4-5.8 2.4-8.9 3-1 .2-2.6 0-2.7-.7-.8-6.1-4.1-2.4-6.5-1.7-6 1.8-11.6-2.1-12.2-8.9-.8-9.3 1.8-18.5 1.6-27.9zm51.7-75.9c-1.4-.1-3.3-.3-4.4.4-3.7 2.7-7.7 1.4-11.6 1.7-1 .1-2.1.2-2.7-.8-.7-1.2.2-2.2 1-3.1 1.5-1.8 3.5-3.1 5.8-3.6 6.8-1.6 13.7-2.2 20.7-.3 6 1.7 8.3 4.4 8.6 10.6.1 3.2 0 6.3 0 9.5h.1v11c0 2.4-.8 3.6-3.5 3.6-7.7 0-15.3-.9-23-.3-5.7.6-10.9-3.5-11.5-9.3v-.1h-.1c-.6-6.6 2.9-11 10-12.6 3.4-.6 6.9-1 10.4-1 1.5-.1 3.3-.1 3.2-2.2.1-1.8-1.2-3.4-3-3.5zm-6.7-135.2c-1.8 1.4-4.5-.4-6.4-1.3s-1-3.2-.3-4.9c.5-1.3.6-3 2.1-3.8 2 1 2.5 3.1 3.2 4.9s3.2 3.6 1.4 5.1zm-2.7-26.8c.1-2.8-.8-7.8 4-8.3 5.2-.5 9.8 2.9 9.8 6.3 0 3.8-2.4 6-6.7 5.9-2.4-.9-7.3.7-7.1-3.9zm11.9 12.3c1.1-.4 2.2-.7 3.3-1.1 6.1-2.2 9.1-6.1 9.2-11.6.1-6.6-3.1-11.9-9.3-13.9-5.8-1.9-11.8-3.2-17.8-4.7-2.6-.7-3.8.1-4.4 3-2.5 11.4-5.3 22.6-8.1 33.9-.5 2.2-.4 5-4.2 3.8-2.9-1-6.2-1-5-5.9 2.3-8.8 4.1-17.8 6.1-26.7 1.3-5.9 8.8-12.6 15.3-12.3 10.3 2.4 22.1 5.2 33.9 7.8 2.1.4 2.1 1.7 1.9 3.3-2.5 14.2-5 28.5-7.6 42.7-.2 1.2-.6 2.3-2.1 2.4-1.9.1-3.8-.2-4.8-2-2.7-5.3-5.3-10.7-8-16.1-.4-1.6.3-2.2 1.6-2.6zm33.9 49.7c.6-2.4 2.5-3 4.7-2.4s1.8 2.4 1.8 4c0 .3-.1.7-.1 1-.4 3.6-2.4 7.8-.5 10.7s6.5.9 9.9 1.5c1.9.4 3.8.5 3.7 3-.1 2.3-2 2.3-3.7 2.3-1.2 0-2.3 0-3.5-.1-8.8-.9-8.1-1.9-9.2 8-.5 4.3-1.2 8.6-1.4 12.9-.4 5.7 2.1 7.6 7.7 6.2 1.3-.4 2.5-.9 3.7-1.4 1.4-.5 2.7-.4 3.4 1 .9 1.6-.1 2.5-1.3 3.2-7.6 4.4-15.5 5-23.4 1.5-5.5-2.4-7-7.2-6.5-12.9.7-5.5 1.3-10.9 2.1-16.3.4-2.8.2-4.6-3.3-4.5-1.6.1-3.7.2-3.8-2.1s1.9-2.9 3.8-3.1c7.8-1 13.9-4 15.9-12.5zm-18.7 177.8c-3.8 5.7-8.4 6.2-14.4 3.8 5.3 4.6 4.3 8.8.5 12.9-.4.1-.9.4-.5.8.2.2.8 0 1.2 0 3 .2 6.1-3.6 9.1.1.6.8 1.6 1.5 1.2 2.6s-1.7.8-2.6.8c-1.7.1-3.3 0-5 .1-1.3.1-2.9-.3-3.2 1.5-.3 1.3.2 2.7 1.3 3.6 2.4 2.1 5.8 3 7.8 1 4.3-4.5 8.8-2.4 13.3-1.7 2 .3 5.1-.5 5.8 1.8.9 2.8-1.4 4.9-3.3 6.8-7.4 7.4-27.5 7.6-35.9.4-7.7-6.8-8.7-21.8-2-30.8h-.1c5.6-7.5 17.6-10.4 28.3-6.9 7.3 2.4 12.8 11.1 13 20.2 0 2.2-.6 3.1-2.6 3.2-2.3.1-4.6.5-7 .5-1.8 0-4.3.9-4.4-2.4-.1-2.5-.3-5.1 3.2-5.7 1.7 0 3.3-1.1 4-2.7-5.2-.7-8.6-3.2-7.7-9.9zm-66.6 85.4c.1-3.7.5-7.3.3-11s.8-5.4 5-5.1c6.5.4 13 .1 19.5.1v1.5c6.7 0 13.3.1 20 0 3.1-.1 4.3.9 4.4 4.2.3 7.3.5 7.4-6 9-2.3.5-3.6 1.7-3.7 4s-.6 5.5 2.6 6.3c2.9.7 3.1 2.6 3.3 4.8.8 7.8 1.6 15.6 2.4 23.3.4 3.9-1.7 5.2-5 5.2-13.7-.4-27.3-1-40.9-1.3-2.8-.1-3.3-1.7-3.2-4 .5-12.3.9-24.7 1.3-37zm49.6 43.8c2.1-1.1 2.2-3.2 2-5.2-.9-9.4-1.9-18.9-2.9-28.3-.2-2.1-1.1-3.5-3.2-3.8-1.5-.2-2.6-.9-2.4-2.6.2-1.2 1.3-2.1 2.5-2.1 10-1.4 20.1-2.7 30.2-4 1.9-.3 2.7 1 3.1 2.6.7 2.9 1.5 5.8 2 8.8.2 1.3.9 3.2-1.1 3.8s-3.2-.6-4-2.2c-1.3-2.5-2.6-5-5.5-6.2-6.8-2.8-10.7 0-10 8.8-.1.6-.1 1.1 0 1.7.2 1.7-.3 4.3 1.8 4.7 2.5.5 5.1-.6 6.5-2.8.6-1.2 1.1-2.4 1.5-3.7.5-1.1 1.6-1.8 2.8-1.5 1.5.1 1.8 1.2 2 2.4.4 4.3.9 8.6 1.2 12.9.1 1.5 0 3.1-1.8 3.6s-2.5-1-3.3-2.3c-.6-1-1.3-1.9-2.1-2.8-1.6-1.6-3.7-1.4-5.6-.9-2.3.6-1.4 2.7-1.4 4.2.1 1.5.2 3 .4 4.5.4 3-.3 7 3.7 7.8 4 .9 8.2-.7 10.7-4 1.3-1.9 2.4-4 3.3-6.1.7-1.5 1.7-2.5 3.5-2.1s1.5 1.9 1.5 3.2c.2 11.3-.1 11.8-11.2 13.3-7.3 1-14.6 1.9-21.8 2.9v-.1c-1.6.2-3.5 1-4.4-1.1-.8-1.8.5-2.7 2-3.4zm89.7-257.2c-5.3 1.7-10.4 3.9-15.6 3.5-2.6-.1-4.7 0-6.9-.6-5.7-1.8-8.9-5.3-9.1-10.5-.2-5.5 2.8-8.7 7.7-10.3 2.7-.9 5.4-1.7 8-2.6 1.8-.7 4.5-1.2 3.9-3.7-.5-2.3-3.2-2-5.2-1.9-3.5.3-6.9 1.3-9.9 3.2-1 .6-2.1 1.5-3.2.7s-.1-2.2-.3-3.3c-.7-5.9 2.5-8.4 7.8-9.2 2.6-.5 5.2-.9 7.9-1.1 9.2-.3 14 4 14.6 13.1.5 6.5.5 13 1.9 19.3.6 1.8.1 2.8-1.6 3.4zm-25.7-98.4c-3.7-9.4-3.7-18.8 1.3-27.9 2.1-3.8 4.9-5.6 9.2-5.2 2.8.3 5.7 0 8.5 0v-.1h7.5c7.1-.1 9 1.2 11.8 7.6 5.4 12.4 2.2 27.9-7.1 34.5-10.6 7.7-26.5 3.3-31.2-8.9zm22.6-72.7c-5.1-.2-8-3.5-9.4-7.8-3.3-9.4-2.6-19.7 1.9-28.5 2.4-4.8 6-8 11.8-7.3s7.8 4.8 9.4 9.6c1 3.1 1 6.2 1 9.4-.3 6.3-1 12.6-4.2 18.3-2.4 3.8-5.7 6.5-10.5 6.3zm-45.1 33.2c2.6-1.5 3.8 1.5 6 1.8-2 .8-4 1.7-5.9 0-.4-.6-.4-1.3-.1-1.8zm8.5 15c5.6 0 7.6 2.2 7.3 7.6 0 .8-.2 1.3-1 1.4-1 .2-1.5-.6-2-1.2-3.8-5-9.2-5.5-14.8-5.1-2.5.2-4.9.9-5.2 3.6s2.1 3.1 4 3.7c4.7 1.5 9.6 2.7 14.2 4.3 4.1 1.4 7.8 3.7 7.4 8.8s-4.6 6.3-8.5 7.2c-7.7 1.7-15.6.3-23.4.9-1.2.1-2.3-.7-2.4-1.9v-.1l-1.2-8.7 1.2-.7c4.5 7 10.7 10 18.8 8.2 2-.5 4-.8 4.4-3.3s-1.5-3.7-3.3-4.4c-3.4-1.3-6.9-2.2-10.4-3.3-1.8-.5-3.5-1-5.2-1.7-2.9-1.3-5-3.2-5.2-6.7s2.2-5 4.7-6.4c3-1.5 6.3-2.3 9.6-2.2h11zM993.5 500.2c.3-3.7 3-5.2 6.2-6.3 5-1.7 10.2-.8 15.3-1.4 7.2-.9 14.5-2 21.8-1.2 13.9-.5 27.9-.9 41.5-4.3 5.2-1.3 9.3-.4 12.3 3.9 3.6 5.2 6.5 10.8 3.7 17.2-1.9 4.4-10 5.5-13.4 1.5-4.7-5.5-10.7-7-17.3-7.2-5.5-.3-11 .1-16.4 1.1-4.1.9-6 3.2-5.8 7.4.1 2 .1 4 .2 6 .3 8.6 2.4 10.3 10.7 9 3.7-.6 5.6-2.5 5.9-6.2s1.1-7.4 6.1-7.7c4.5-.3 7.7 2.1 9.3 7.3 2.3 7.3 3 14.6 1.2 22.1-.6 3.2-2.6 5.9-5.4 7.4-4 2-6.6 1-8.2-3.2-1.1-2.8-2.1-5.8-5.1-7.1-6.2-2.6-10.9.9-11.2 7.7-.1 3.4.6 6.6 1 9.9.5 4 2.9 6.2 7.1 6.4 6.8.3 13.7-.3 20.3-1.8 6.8-1.6 12.3-4.8 15.5-11.3 1.1-2.5 3-4.5 5.4-5.6 4.8-2.2 9.9.3 10.4 5.6 1 9.2-2.6 16.9-9 23.3-1.7 1.7-3.8 1.7-6 1.7-22.8-.3-45.5 2-68.2 3.5-5.6.4-11.3.4-16.9.6-2.6-.2-5-.8-5.6-3.9s1.4-4.6 3.4-6 3.9-2.5 5.8-3.7c1.2-1.6 2.6-3.1 2-5.3-1.6-2.2-1-4.8-.9-7.3.4-12.6-.6-25.3-3.1-37.7-.8-4.2-2.6-7.5-7.2-8.5-3.1-.6-5.7-2.2-5.4-5.9zm-9.8 147.6c-9.4 2.9-18.8 5.7-28.1 8.5-1.6.5-3 .4-3.6-1.5s.8-2.4 2-2.9c3.1-1.3 2.9-3.5 2-6.2-3.9-12-7.7-24.1-11.5-36.2-1-3.1-1.9-6.2-6.4-5-1.3.4-2.2-.5-2.5-1.8s1-1.6 1.9-1.9c9.2-3 18.3-6 27.5-8.9 1-.3 2.5-.7 3 .8s.4 3-1 3.5c-3.5 1.3-2.5 3.6-1.7 6 1.5 4.8 3.1 9.5 4.5 14.3 1 3.5 3.2 3.9 6.2 2.9 5.3-1.8 7.7-4.8 7.2-10.5-.4-4.5 1.3-5.5 5.3-5.4 3.3-.1 6.7-.4 10-.8 1.8.3 4.4-.9 5.5 1.2s0 4.5-1.4 6.5c-5.9 9-15.5 11.8-25 14.1-4.2 1-5.3 2.2-3.4 6.1.8 2 1.4 4.1 1.8 6.2 1 3.7 1.5 7.9 7.2 6.5 1.3-.3 2.2.8 2.5 2 .1 1.4-.8 2.1-2 2.5zm42.9-13.1c-6.1.4-12.3 1-18.4 1.3-2.4.1-3 .8-2.3 3.3 2.3 8 10 10.2 17.3 4.8 1.1-.8 2.1-3.1 3.5-1.6 1.8 1.8-.5 3.3-1.6 4.5-3.1 3.3-7.9 4.9-15.8 5-6.3-.2-13.2-1.7-16.6-9-3-6.4-3.1-13.1 1.6-18.9 5.9-7.3 14-8.5 22.6-7 6.6 1.2 11.8 4.3 13.9 11.3 1.4 5.1.8 6-4.2 6.3zm-9.8 93.5c-.7-2-.3-3.2 2-3.4 5-.5 9.9-1.1 14.9-1.6 1.2-.2 2.4.3 3 1.3 2.8 4.7 7.3 3.9 11.6 3.5 2.9-.2 5.3-1.7 5.3-4.9.1-3.5-2.9-4-5.6-4.4-5.9-.7-11.9-.8-17.8-2.2-7.1-1.7-12.3-5.5-13.5-12.9-1.3-7.8 2.1-13.9 8.2-18.6 7.3-5.7 15.9-7.3 25.5-7.5 8.9.2 17.1 2.7 21.5 12.3 1.4 3.2 1.4 5.4-2.9 5.7-3.8.3-7.6.7-11.4 1.1-1.5.2-3-.4-3.9-1.6-3-3.8-7-3.1-10.9-1.9-2.1.6-3.5 2.1-3.3 4.4s2.1 3 3.9 3.3c5.4.7 10.9.9 16.3 1.8 15.3 2.7 22.1 18.7 12.9 30.7-4.4 5.7-11 8-17.8 9.1-7.5 1.2-15.1 2.5-22.8.5s-12.7-7.3-15.2-14.7zm-38.9 42.3c.7-1.8 2.5-1.2 3.9-1.3h25.5c8.5 0 16.9.1 25.4-.1 3.3-.1 4.4 1.2 4.4 4.4-.1 13.2 0 26.3-.1 39.5 0 5.4-5.2 10.2-10.6 10.2h-42.5c-1.3 0-2.9.7-3.8-.6-1-1.5.8-2.3 1.4-3.4 2-3.5 3.6-7.1 3.7-11.2.1-3.7-1.2-6.3-4.9-7.7-3.2-1.2-4.2-6.4-1.9-9 5.4-6 5.7-11.6 1-17.5-.7-.9-2-1.9-1.5-3.3zm28.2 124.9c1.6 1 .9 2.3-.2 3.3-1.9 1.8-4.1 3.5-5.8 5.5-2.7 3.1-5.1 4.1-7.8.1-.9-1.4-2.2-1.5-3.9-.9-13.9 5.7-27.7-3.5-32-16.4-3.7-11.1-2.6-21.5 4.4-30.8 5.6-7.4 13.5-10.9 22.9-8.9 11 2.3 16.8 10 19.9 20.2.9 2.7 1.4 5.6 1.4 8.4-.3 2.5-.3 5-1 7.4-1.6 4.6-3 8.9 2.1 12.1zm-64.8-116.6c0-.2.1-.4.2-.5.7-2 2.5-2 4.1-2 6.8-.1 13.6-.1 20.5-.2 1.5 0 3-.1 4.5-.3 6.1-.9 9 1.8 8.7 8.1-.1 1.6-.4 3-2 3.7-1.4.7-3.1.1-3.9-1.3-1.7-2.4-4.1-3.3-6.8-3.7-6.2-.8-8.3 1.2-7.8 7.4.1 1.7.2 3.3 2.5 3.5 2.1.2 3-.8 3.5-2.7.4-1.5.2-3.7 2.6-3.6s2.7 2.2 3.1 3.9c1 4.1.8 8.3-.6 12.3-.5 1.2-1.1 2.5-2.8 2.4-1.5 0-1.8-1.1-2.2-2.3-.5-1.8-1.3-3.8-3.6-3.4-2.4.4-2.2 2.6-2.1 4.4.1 2.5-.7 6 2.4 6.9 3.7 1.3 7.8.7 10.9-1.6.6-.6 1.2-1.2 1.7-1.8 1.5-1.7 2.2-5.5 5.4-3.7 3 1.6 1.8 5.1 1.2 7.7-1.4 5.7-3.5 7-9.5 6.7-3.8-.2-7.7 0-11.5 0v-.2h-14c-1.7 0-3.5-.1-4.4-1.8-1.1-2 .7-2.9 1.9-4 .7-.5 1.2-1.2 1.4-2 1.4-8.7 1.4-17.6.1-26.3-.2-1-.9-1.9-1.8-2.2-1.1-.3-2-1.9-1.7-3.4zm-48.9-8.9c9.3-1.6 18.4-4.3 26.6-4.9 11 0 17.9 5.3 19.4 13.9s-3.3 15.8-12.6 18.9c-3.8 1.3-7.6 2.3-11.6 2.9-3.3.5-3.7 2-3.1 4.8.9 4.4 1.5 8.8 2.4 13.3.4 2.2-.4 3.2-2.6 3.8-11 3.2-11.3 3.1-13.3-7.5-2.5-13.4-5-26.8-7.6-40.2-.4-2.5-.6-4.5 2.4-5zm-62.8 54.2c-10.7 6.9-27.7 4.9-33.1-10.2-3.7-10.4-3.4-20.8 3.5-29.8 9.3-12.3 29.6-9.9 36.3 4 .6 1.2 1 2.4 1.7 4 2.1-4.2 3.2-8.7 6.6-11.9 11.4-10.7 29.3-7.4 35.7 7.2 4.2 9.6 3.7 19.7-1.9 28.7-8.5 13.7-29.6 12.7-37.2-1.5-.6-1.2-1.3-2.3-2.3-4-2.4 5.4-4.5 10.5-9.3 13.5zm56 67.3c-2.3-3.8-5.7-7-8.7-10.2-1.5-1.6-3.1-3-5-4.1-4.7-2.7-7.5-1-7.3 4.2.1 3.7.5 7.3.5 11 0 4 2 5.6 5.9 5.6 2 0 4.9-.7 4.9 2.6s-2.8 2.8-4.9 2.9l-30.3 2.4h-2c-1.7 0-2.9-.8-3.1-2.6-.2-2 1.3-1.9 2.6-2.3 7.3-2.2 7.9-3 7.5-10.5-.6-11.1-1.6-22.2-2.1-33.3-.2-4.6-1.8-7.2-6.9-6.8-1.7.1-4.2.5-4.2-2.1-.1-2.4 2.1-2.6 4-2.7 13.3-.8 26.5-2.9 41.4-3.2 4 .3 9.7 0 15.2 1.7 5.7 1.8 10.8 4.4 11.5 11s-3.2 10.6-8.2 13.8-4.8 3-.8 7.2c3.3 3.5 6.5 7.2 9.8 10.6 1.4 1.5 2.5 4.4 4.8 3.7 1.8-.6 1.2-3.5 1.5-5.4.8-6.1 1.7-12.2 2.3-18.3.3-3.2 1.8-3.8 4.6-3.6 8.4.9 16.9 1.8 25.3 2.4 3.3.2 4 2 3.5 4.6s.3 6.2-4.3 5.7c-4.3-.4-8.6-.7-12.9-1.1-2.3-.2-3.4.6-3.7 2.9-.4 2.7 1.5 2.4 3.2 2.6 2.8.3 5.6.8 8.4.9 3 .2 5.1.5 4.3 4.6-.7 3.3-.7 6.3-5.4 5.4-2.8-.5-5.6-.6-8.4-1-2.6-.4-3.6.7-4 3.2-.5 2.9 1.4 2.9 3.3 3.1 4.3.4 8.6.9 12.9 1.2 3.3.2 4.2 1.9 3.3 4.6-.7 2.2.9 6.2-4.1 5.7-8.9-1-17.9-1.7-26.8-2.5-1.7-.2-3.7-.5-3.5-2.7.4-4.7-2.6-4.1-5.1-3.3-8.5 2.4-14.4-.4-19-7.9zm33.9 39.7c4.6-1.3 9.4-1.9 14.1-1.8 6.7-.1 12.2.1 17.5 1.7 3.7 1.2 7.1 1.2 10.6-.4 2.5-1.2 3.9-.6 4.5 2.3 1.1 5.5 2.5 11 3.7 16.5.3 1.6 1.2 3.4-1.3 4-2 .5-3.9 1.6-5.8-.9-2.2-2.9-4.7-5.6-7.3-8.1-11.3-10.9-25.3-7.7-31 7-4.7 12.2-1.5 25.5 7.9 32.4 8.3 6.1 20.1 4.3 26.2-4.1.1-.1.2-.3.3-.4 2-2.8 3.5-6.1 8.2-4.8 2.8.8 3.1 2 1.9 4.2-6.1 11.3-14.2 19-28.3 18-13.3-.9-26.1-2.6-36-12.8-14.3-14.1-13-44.8 14.8-52.8zm11.8 142.8c-6.2 5.5-13.6 8.2-21.5 9.7-9 1.7-18.1 2.4-27.2.6-5.9-1.2-12.6-10.3-11.9-16.1.3-2.6 2.7-4.5 5.3-4.2.5.1 1 .2 1.5.4 1.5.7 2.9 1.6 4.1 2.8 6.5 6.1 14 7.9 22.6 5.8 2.4-.6 5.2-1.4 5.2-4.4s-3-3.3-5.2-3.7c-5.1-.9-10.2-1.5-15.3-2.3-5.1-.9-9.9-3.1-13.9-6.4-6.5-5.3-7.7-13.1-2.9-20 7.1-10.2 17.8-13.3 29.5-14.2 1.7-.1 3.3 0 5.9 0 3.5.2 7-.2 10.4-1.2 6-1.8 15.4 6.6 14.8 12.8-.4 3.4-3.8 5.7-7.7 5.3s-7.1-2.7-10.6-4.3c-3.9-1.7-7.8-2.6-12.1-1.4-2.3.7-4.7 1.5-4.6 4.3.1 2.6 2.3 3.3 4.5 3.9 6.2 1.5 12.7.4 18.8 2.3 1.6.5 3.2.7 4.8 1.3 13.8 4.9 16.5 19.2 5.5 29zm50.5-30.9c-5.8 13.4-11.5 26.8-17.1 40.2-3.1 7.4-8.4 10.2-16.2 8.9-2.8-.5-2.4-2.3-2.4-4.1s-.8-3.9 2.4-4.5c6.7-1.4 10-8.9 6.8-15.2-4.5-8.9-9-17.7-13.8-26.4-1.8-3.3-1.9-4.5 2.5-4.6 10.5 0 10.5-.2 15.1 9.8 1.2 2.5 2.5 5 4.3 8.8 2.1-5.5 4.2-9.6 5.3-14 1.2-4.8 3.7-6.2 8.5-6 7.7.4 7.6.1 4.6 7.1zm2.9-48.7c-1.4-.1-2.8.3-3 1.9-.4 5.2-3.8 4.7-7.6 4.3-8.1-.9-8.2-.8-5.3-8.5 4.7-12.8 9.4-25.6 13.9-38.4 1-2.9 2.4-4.2 5.7-3.9 13.1 1 9.5-1.6 12.7 11 2.8 11.3 5 22.7 7.4 34 1.6 7.5 1.6 7.5-6.9 7-3.7.6-7.4.2-7.3-5.7 0-1.3-1.2-1.4-2.2-1.4-2.4-.1-4.9-.2-7.4-.3zm47.8 58.6c-2 .9-2.7-3.4-4.2-5.3-4.6-5.8-10.7-7.5-17.7-7.2-2.2.1-4.3 1.2-4.8 3.7-.4 2.3 1.1 3.9 2.9 4.9 4.9 2.8 9.9 5.5 15 8 2.8 1.4 5.3 3.4 7.3 5.8 5 6 2.3 14-5.4 15.9-4.5 1.1-9 .5-13.4-.2-6.5-1.1-13-2.5-19.5-3.8-.8-.2-1.9-.1-1.9-1.1-.1-4.8-.5-9.7 1.6-14.6 3.5 10.1 9.9 15.9 20.7 15.8 2.6 0 5.7.2 6.8-2.9s-.9-5.6-3.3-7.2c-4-2.6-8.4-4.7-12.6-7.1-1.3-.7-2.7-1.3-3.9-2.2-4.8-3.1-7-7.4-5.6-11.7 1.6-4.9 5.7-6.6 10.5-7 9.2-.7 17.7 2.7 26.5 4.1 2.8.4 1.8 2.9 1.8 4.5.1 2.5 1.6 6.5-.8 7.6zm47.2-16.9c-.5 0-1-.1-1.5-.2-12.8-1.8-12.7-1.8-14 11-1 9.8-2.6 19.4-3.4 29.2-.3 3.6-1.6 4.7-4.9 4.1-1-.2-2-.3-3-.4-4.2-.2-7-1.5-5.1-5.8 1.5-12.9 2.9-25.1 4.5-37.3.5-3.3-.3-4.7-3.7-4.7-2.3 0-4.6-.3-6.9-.9-1.8-.5-4.7.6-5.4-1.5-1-2.8.2-5.9 1-8.8.4-1.7 2.3-.9 3.5-.8 14.3 1.7 28.7 3.5 43 5.3 1.5.2 2.4.7 2.8 2.3 1.2 5.1-1.9 9-6.9 8.5zm39.7 42.3c-9.3-.1-18.7-.1-28 0-2.7 0-3.4-1.2-3.4-3.6.1-5.3 0-10.7 0-16 0-5.2.1-10.3-.1-15.5-.1-2.6.8-3.5 3.4-3.5 9 .1 18 .1 27 0 2.9 0 3.3 1.3 3.1 3.7-.2 2.1.6 4.5-3 4.4-5-.1-10 .1-15-.1-2.7-.1-3.3.9-3.4 3.5s.7 3.6 3.4 3.4 5.3.1 8-.1 3.9.8 3.9 3.7-.5 4.6-3.9 4.3c-2.2-.2-4.3 0-6.5-.1-2.9-.2-5-.1-5 4 0 3.9 1.6 4.3 4.7 4.1 4.8-.2 9.7 0 14.5-.1 2.7-.1 3.4 1.1 3.4 3.6s.2 4.3-3.1 4.3zm5.5-89.4c-1.4-5.5-3.7-10.7-6.8-15.5-.5 5.6-1.3 11.1-1.5 16.7-.3 6.2-4.6 3.5-7.6 3.8-3.9.5-3.9-1.9-3.6-4.7 1-10.4 1.9-20.9 2.9-31.3.3-3.2 1.4-5.4 5.3-4.4 1.5.3 3 .4 4.5.1 3.5-.4 5.1 1.3 6.1 4.4 1.4 4.4 3.1 8.8 4.8 13.1.6 1.5.7 3.2 2.9 4.2.5-5.6 1.2-11 1.4-16.4.2-5.7 4-3.8 7.1-4 3.6-.2 4.5 1.4 4.1 4.9-1.1 10.6-2 21.2-2.8 31.8-.2 2.7-1.2 4-4 3.8-1.3-.1-2.7-.1-4 0-5 .5-7.5-1.5-8.8-6.5zm75.5 89.5c-3.7.9-7.5 1.2-11.2.8-4 .2-7.9.3-11.5-1.1-2.6-1-4.8-2.6-1.3-5.3 3.9-3.1 3-7.4 3.1-11.5 0-1-.5-1.9-1.3-2.5-1.2-.6-2.3.4-2.9 1.4-2 3.3-3.8 6.6-5.7 9.9-.9 1.6-1.7 3.2-2.7 4.7-2.1 3.1-4.3 3.5-6.4-.1-2.7-4.7-5.4-9.5-8.2-14.2-.7-1.2-1.2-3.3-2.9-3-2 .4-1.7 2.7-1.6 4.2.2 4.4-1.7 9.5 4.2 12.1 1.5.7.8 2.5-.7 3.6-2.9 2-16 2.4-19 .4-2.1-1.4-2.7-3.5-.1-4.6 3.3-1.3 3.7-3.9 4-6.7.8-6.4 1.2-12.9 1.1-19.4-.1-3.5-.4-6.7-4.5-8.6-3.2-1.5-2.9-4.3.7-5.7 6.2-2.4 12.7-2.3 19.1-.9 1.9.4 3 1.9 4 3.5 2.2 3.5 4.3 7.1 6.7 10.5 4.4 6.6 6.2 6.5 10.2-.5 1-1.7 1.9-3.5 3-5.2 5.9-9 13.5-11.6 23.9-8.5 3.8 1.2 4.6 3.6 1.8 6.4-2 2-3.2 4.7-3.3 7.5-.4 7 0 14 .1 21 .1 2.2 1.1 4.2 2.9 5.5 3 2.9 2.5 5.2-1.5 6.3zm32.2-137.7c12.4-2 24.7-5.9 37.5-4.7 8.9.8 13.4 6.2 13.3 16-.1 3.9-1.9 7.5-4.9 9.9-2.4 1.9-2.6 3.2-.3 5.5 3.6 3.7 6.7 7.8 10.1 11.6 2.3 2.6 4.2 5.7 8.4 5.2 1.7-.2 2.3 1.1 2.4 2.6.2 1.5-.8 3-2.4 3.2h-.1c-4.7.9-9.5 1.7-14.2 2.6-3.2.6-4.4-2-5.9-3.8-3.6-4.4-6.9-9-10.4-13.4-1.2-1.4-2.4-2.7-3.8-3.9-1.2-1-2.9-1.2-4.2-.3-1.3.7-.9 2-.8 3.1.4 3.1.8 6.3 1.3 9.4.6 3.8 1.9 6.8 6.7 6.2 2-.2 3.1.8 3.3 2.8s-1.2 2.5-2.8 2.8c-7.9 1.4-15.7 2.8-23.6 4.2-1.7.3-3.4.2-4-1.9-.5-2 .5-3.3 2.3-3.8 4-1.1 4.4-4.1 3.9-7.5-1.8-11.7-3.6-23.3-5.4-35-.5-3.4-1.4-6.3-5.9-5.5-1.2.3-2.4-.4-2.7-1.6 0-.2-.1-.4-.1-.5-.2-1.7.5-2.9 2.3-3.2zm-16.8 27.7c-.1-.7-.7-1.3-1.5-1.2-.3 0-.6.2-.8.4-2.9 2.7-6.3 1.1-9.5 1.4-4.1.4-5-1.3-3.8-5 2.6-7.8 9.2-11.4 18.7-10.1 7.1 1 11.8 6.5 11.5 14.5s-1 15.9-1.1 23.9c-.1 5.3-5.1 1.7-7 3.4-2.3-.3-4.7.7-6.2-1.7-.8-1.3-1.6-.4-2.5 0-7.4 3.1-13.5 1.6-15.2-3.8-2.5-7.8 1.5-17.1 8.4-19 2.4-.7 4.9-.7 7.4-1.2.9-.2 1.9-.5 1.6-1.6zm-23.9-6.4c1 4 1.9 8.1 1.6 11.7.1 16.8-7.5 25.7-23.5 28.1-1 .2-2 .2-3 .3-10.6 1.1-10.7 1.2-12-9.1-1.9-15-3.7-30.1-5.6-45.1-.4-3 .5-4.3 3.5-4.5 3.5-.3 6.9-1 10.4-1.4 15.1-1.7 25.1 5.3 28.6 20zm-1.2-100.6c-4.1.1-8.2 1.1-12.4 1.3-3.1.2-3.9 1.3-3.6 4.4 1.6 12.2 2.7 24.4 4.3 36.6.5 4-.7 5.2-4.6 5.5-12.1.9-12.1 1.1-13.5-10.8-1.1-9.6-2.2-19.1-3.1-28.7-.3-3.5-1.4-5-5.2-4.7-4.1.4-8.3.1-12.5.4-2.8.2-4.1-.8-3.9-3.6 0-.3 0-.7-.1-1-.7-8.4-.7-8.3 7.7-8.9 14.6-1.1 29.1-2.3 43.7-3.6 7.6-.7 7.6-.8 8.2 7.3 1.6 4-.4 5.7-5 5.8zm-9.3-76.6c-1.8-1.9-7.6 2.6-7.6-3.9 0-2.4-.5-6.7 4.1-5.4 2.8.8 8.3-2 7.8 4.4-.1 2.2 1.2 6.1-4.3 4.9zm-.8 3.6c3.2.3 4.6 1.7 3.7 4.4-1.4 11-2.7 21.5-4.1 32-.1 1-.3 2.1-1.4 2.4-3.3.9-6.7.1-9.7-1.1-2.1-.9-.8-3.6-.6-5.5.8-6.9 1.8-13.8 2.7-20.7.3-2 .1-3.7-2.5-3.9-4.5-.4-2.7-3.5-2.6-6 .2-3.1 2.2-3.2 4.6-2.9 3.3.5 6.6 1 9.9 1.3zm49.4 24.2c-5.1 4.1-11.4 6.1-21.1 6.1-4.5 0-8.9-1.5-12.6-4.2-6.9-5.2-7.5-13.8-1.5-19.9 8.3-8.3 25.8-9.3 35-2 7.1 5.6 7.2 14.4.2 20zm5.1-73.5c-4.1 1.8-8.2 2.7-12.6 2-5.9-1-8.5-4-8.2-10 .3-5 1.2-9.9 1.6-14.9.5-5.7-1.9-7.9-7.4-7-2.1.5-4.4.1-6.2-1.1-2.4-1.7-2.9-.3-2.9 1.7 0 4.8.1 9.7.1 14.5 0 1.8.9 3.6 2.4 4.6 2.5 1.6 3.5 4.7 2.6 7.5-.9 3-3.4 4.1-6.1 4.3-6.6.7-13.2 1.4-19.9 1.5-7.1.2-9.8-5-6.1-11 .6-1 1.4-1.8 1.4-3.1v-19.6c-2.9 1.8-4.1 2.7-5.4 3.3-4.8 2.2-8.7.5-10.1-4.5-.9-3.7-1.2-7.6-.9-11.4.2-4 3.3-5.3 6.6-5.5 13.6-.8 27.2-2 40.8-3.5 4.6-.5 7.5 1.5 7.9 6.2.3 3.9 1.9 7.8.7 11.8-.6 1.9.5 2.3 2.1 2.3 3.3.1 6.6.5 10 .5s4.4 1.2 3.9 4.5c-.9 5.4-1.6 10.9-2 16.3-.2 3-.7 7 3.9 7.2 3.9.2 7.3-1.3 8-5.8s1.3-9.2 1.8-13.8c.3-1.3-.1-2.7-.9-3.8-.8-.8-2.3-1.2-1.8-2.7.7-1.6 2.3-.9 3.5-.9 12.7.1 12.7.1 11.2 12.8-.7 5.8-1.2 11.6-1.8 17.4-.4 3.5-1.5 6-5.6 3.6-2.4-1.5-6.7.9-7.4-4-.4-.9-2.2.2-3.2.6zm74.8 25.2c.4 1.1-.1 2.4-1.3 2.9-.2.1-.4.1-.6.1-4.2.8-4.2 3.5-3.8 6.8 1.7 15.2 3.2 30.4 4.8 45.7.2 1.9 1.8 4.5-1.1 5.7-2.6 1.3-5.7.9-7.9-1-10.1-8.7-20.3-17.2-30.4-25.8-4.3-3.6-8.6-7.2-12.9-10.7l-1.1.7 3.3 32.7c.3 3 2.2 3.9 4.8 3.9 1.4 0 2.7.3 2.8 2.1.1 2.1-1.4 2.5-2.9 2.6-5.4.6-10.9 1.1-16.4 1.7-1.3.1-2.4.2-2.7-1.3s0-2.7 1.7-3c4.6-.8 4.5-3.8 4.1-7.5-1.4-12.6-2.7-25.2-4-37.7-.4-3.8-.3-8-6-7.7-1.1 0-1.8-.8-1.8-2-.2-1.1.5-2.1 1.6-2.4h.4c7.3-.8 14.6-1.7 21.8-2.2 2-.1 3.4 1.9 4.9 3.2 8.9 7.7 17.8 15.5 26.8 23.2.9.7 1.9 1.3 3.7 2.5-.2-8.4-1-16.8-2.6-25.1-.2-1.6-1.7-2.7-3.2-2.5-1.7 0-3-.5-3.1-2.4-.1-2.2 1.8-2.2 3.1-2.3 5.1-.6 10.3-1 15.4-1.4 1-.2 2.2-.4 2.6 1.2zm-22.1-76.9c2.7.4 5.3 1.5 7.8-1.2 1.7-1.9 3.8-.8 4.2 1.8.7 3.8 1 7.6 1.6 11.4.3 1.9 0 3.4-2 3.9-2.2.6-4.3.2-4.9-2.1-2.3-8-8.4-8.5-15.1-7.9-3.3.3-6.1 1.2-6.5 4.9s2 5.7 4.9 6.7c5.5 1.8 11.3 2.9 16.8 4.7 10.8 3.6 15.2 13.2 9.8 21.3-4.6 6.8-11.8 9.5-19.6 10.5-1.3.2-2.7.2-3.6.2-2.9-.1-5.4 0-7.8-.8-1.9-.6-3.6-.8-5.4 1-2.4 2.3-4.5 1.9-5-1.9-.5-4-.9-8-1.7-11.9-.5-2.6-.2-4.2 2.6-4.9 2.4-.6 3.7.5 4.6 2.6 4 8.8 10.9 11.8 20.2 9 5.2-1.6 6.7-6 3.5-10.4-2.6-3.5-6.5-4.4-10.3-5.6-5.2-1.6-10.7-2.6-15.3-5.7-6.9-4.6-8-12.3-2.1-18.2 6.4-6.5 14.4-8.6 23.3-7.4zm14.5-79.5c-8.3.8-16.6.9-24.9 1.3v-.1l-1.5.1c-12.4.7-12.4.7-12.9-11.9-.1-2.5 0-4.6 3.3-4.9 2.5-.2 2.4-2.4 2.5-4.2v-12.5c0-3.2-.5-6.1-4.9-5.7-1.4.1-2.6-.9-2.7-2.3v-.2c-.5-4.1-1-8.2-1.2-12.4-.2-2.6 2.3-1.8 3.6-2.5 1.7-.8 4.2-.9 2.4-4-5.1-9.2 2.4-22.1 16.1-22.2 6.4 0 11.9 2.7 16.5 7.3 2.1 1.9 3.3 4.7 3.3 7.5-.3 14.9 2.6 29.6 2.6 44.5 0 3 .5 5.7 4.4 5.9 1.8.1 2.2 1.7 2.4 3.3 2.1 10.4 1.2 12-9 13zm-4-103.5c-13.8-8.6-13.4-24.7.8-32.7 12.2-6.9 30-4.6 38.2 5 1.2 1.4 2.2 2.9 3 4.5 3.3 6.6 2.1 8.6-5.1 8.7h-9.5c-1.1 0-2.7.2-3-1.2-.3-1.6.6-3.1 2.1-3.6 1.6-.7 3.3-1.3 5.9-2.4-4.9-1.9-7.6-4.4-6.5-10-4.1 2.9-7.4 5.5-11.9 3.4-.8-.4-2 .5-1.5 1.2 2.8 3.8.4 6.7-1.7 9.6 1.7 1.2 3.1.7 4.6.5 1.4-.3 2.9.3 3.7 1.5-2.9 1.7-6.1.9-9.1 1-2.7.1-3 1.2-2.4 3.5 1 3.9 3.9 5.7 7.5 6.3s8 .3 10.4-2c4.2-4 8.8-3 13.5-3.2 4.4-.2 3.7 1.9 2.2 4.6-1.1 2-2.9 3.1-4.7 4.3-8.5 6.2-27.4 6.7-36.5 1zm107.2 63.3c-1.4 10.9-10.3 15.5-19.7 17.7-6 1.4-12.2 1.1-18.4.4-2.5-.3-6.2-2.4-7.4 1.3-1.4 4-1.9 8.6 1.7 12.2.9.9 2.3 1.3 3.5 1.9 3.1 1.6 3.1 4 1.4 6.5-2.1 3.1-6.9 3.4-10.3.9-10.8 2.8-21.1.5-31.2-3-1.8-.6-3.6-1.7-3.5-3.8.1-2.1 1.7-3.8 3.8-4.1 4.5-.8 5.3-4 5.6-7.6.9-11 1.6-21.9 2.7-32.9.4-4-1-6.4-4.5-7.8-2.6-1-6-1.8-5-5.6.9-3.5 4.3-4 7.3-3.9 7.6.4 15.3.9 22.9 1.7 10.7 1.1 21.7-.5 32.2 2.9 12.5 4 20.3 11.9 18.9 23.2zm-5-58.9c.2 2.7.2 5.6-2.5 6.9-3 1.5-5.7-.8-8.2-2-2.2-1-1.1-3-.4-4.7l7.8-31.5c-2.1.1-3 1.8-4.1 2.9-4.8 4.8-7.4 5.4-13.3 2.7-1.4-.6-2.3-2-2.4-3.5-.4-2.4-1.1-4.8-1.8-8-3.1 5-3 10-4.5 14.6-1.8 5.7-2.9 11.6-4.2 17.4-.7 2.9-1.8 4.6-5.1 3.2-2.8-1.1-7-.4-5.6-5.9 3.9-14.9 7.7-29.8 11.3-44.8.8-3.2 2.1-3.8 5.2-3.1 9.6 2 9.6 1.9 11.4 11.6.5 2.8 1 5.5 1.6 8.6 3.6-2.1 5.5-5.4 7.4-8.3 2.9-4.3 5.8-5.7 11.1-4.1 7.6 2.3 7.7 1.8 5.8 9.2-3.3 13-6.4 25.9-9.5 38.8z"/><path class="st0" d="M1323.9 371.8c5.7 1.6 5 5.8 5.2 9.9.1 4.5.1 9 .2 13.5.1 3.6-.1 7.1-4.2 8.7-1 .2-1.6 1.2-1.3 2.2v.2c.3 1 1.3 1.6 2.3 1.7 1.5.1 3 .2 4.5.2 9.2.1 18.3-.2 27.4.4 6.5.4 10-1.4 11.6-7.7.7-2.9.4-5.4-2.6-6.8-3.1-1.4-3.3 1.8-4.6 3.2-.4.5-.7 1.1-1.2 1.6-3.2 3.8-7.6 3.2-11.6 2.3-3.6-.9-3.3-4.5-3.4-7.5 0-5.2.1-10.3 0-15.5-.1-2.8.8-4.9 3.3-6.1 1.1-.5 2.4-1 2.2-2.3-.3-1.6-1.6-2.7-3.2-2.8-3.4-.5-6.9-.6-10.4-.9-4.7.3-9.4-.3-13.7 1.9-1.8 1-3.4 3-.5 3.8zm-51.3 45l35.9.3c10.3 0 10.3 0 10.7-10.4 0-1.2 1.2-2.9-.7-3.5-1.5-.4-2.1 1.3-3 2.2-5 5.4-10.7 9.2-18.6 9.2-3.9 0-5.4-1.4-5.3-5.3.1-8 0-16 0-24-.1-2.7-.1-5.3.1-8 .4-3.2 4.4-1.9 6.4-4.4h-26.6c-.6 0-1.2.1-1.9.3 3.6 1.1 4.4 3.3 4.3 6.6-.2 10-.1 20-.1 29.9 0 1.9.3 3.8-2.2 4.3-1.1.2-2.7.3-2.2 1.9.5 1.7 2.1.9 3.2.9zM871.4 871.4c1-.2 1.9-.6 2.8-.9 7.3-2.1 11-6.8 10.2-13.3-.7-6.3-4.9-9.5-12.8-9.9-7.6-.4-8.7.6-8.3 8 .1 1.5 0 3 0 4.5h.1c.2 2 .3 4 .4 6 .4 6.3 1.5 7.1 7.6 5.6zm495.2-297c3.9.1 6.8-.9 9-4.1 2.5-3.6 2.4-7.6 1-11.4-1.3-3.5-8-6.4-11.9-5.5-4.3 1-2.1 4.9-2.9 7.5-.2.6-.2 1.3-.2 1.9-.2 2.4-.2 3.7-.4 5-.8 4.5.7 6.5 5.4 6.6zM817 782.2c-6.8.2-11.8 6.1-11.7 14 .1 8.5 4.9 14 12.2 13.9 6.7-.1 12-6.2 11.9-13.9 0-7.9-5.6-14.2-12.4-14zm46.6 34c6.5-.2 12-6.7 11.8-14.2-.1-7.7-5.5-14-12.1-13.9-6.8 0-12.6 6.6-12.4 14.2.1 7.7 5.9 14 12.7 13.9zm392.6 126.3c-3.8 1.1-3 4.2-2.6 7 .4 3.1.9 6.2 1.3 9.3.9 7.1 3.2 8 9.1 3.7 2.6-1.8 4.2-4.8 4.3-8 .2-3.2-.7-6.3-2.4-9-2.3-3.5-5.9-4.1-9.7-3zm37.5-353c-.5-10.8-1.5-21.5-2.1-32.3-.2-3.9-1.6-5.1-5.2-3.6-4.8 2-9.9 2.7-14.9 4-1.5.4-3.4.3-4.3 3 4-.1 6 1.7 6.1 5.8.2 8.3.9 16.6 1.4 24.8.2 3.3.6 6.7-3.8 8.4 9.8.5 19.7-.2 29.4-2-5.4-.3-6.4-3.6-6.6-8.1zm-13.4-41.3c2.7.1 5.3-.8 7.3-2.4 3.8-3.1 4.3-7.3 1.3-10.2-4.2-4-12.5-3.8-16.7.4-2.8 2.8-2.8 6.4 0 9.2 2.1 2 5.1 3.1 8.1 3zm-71.8 148.2c.3-4.2-1.6-5.3-5.8-4.8-12.1 1.4-24.1 2.8-36.3 3-4 .1-5.5 1.7-4.4 5.6.8 2.7-1.1 6.8 2.5 8s3.5-3.2 5.4-4.8c1.6-1.3 3.1-2.7 5.3-2.2 2.4.6 2.1 2.8 2.2 4.5.5 8.1.9 16.3 1.3 24.4.3 1.5-.5 3-1.8 3.7-1.1.5-1.6 1.8-1 2.9v.1c.5.9 1.5 1.4 2.6 1.1 6.5-.5 12.9-.9 19.4-1.5 1.1-.1 2.4-.5 2.6-1.9.1-1-.5-2-1.5-2.3-2.8-1.1-3.3-3.6-3.4-6.1-.2-4.2 0-8.3 0-12.5h-.6v-9c0-1.7-1-3.9 1-5 2.3-1.3 4 .5 5.9 1.4 2.2 1.1 3 5.6 6.2 3.7s.2-5.5.4-8.3zm-43 266.8c.8 5.1 1.2 10.2 2 15.3.3 1.9-.6 4.9 2.3 5.3 2.8.4 5.2-1.2 6.6-3.6 1.3-2.2 1.8-4.6 1.7-8.1-.2-2-.6-4-1.1-5.9-1.2-3.6-3.2-6.5-7.7-6.7-2.8-.2-4.3.4-3.8 3.7zM996.1 774.5c-1.9-.1-2.7.8-2.7 2.7v35c0 1.2-.1 2.2 1.5 2.7 5.2 1.8 8.4-.3 8.5-5.8.1-2.1-1.1-5.2.9-6 2.4-1 3.3 2.5 5.2 3.8.4.3.8.7 1 1.1 4.5 7.5 11.3 8.2 20.7 6.2l-13.1-12.3c-2.3-2.2-2.7-3.5 1.2-4.4 6.8-1.6 9.1-5.1 8.9-11.9-.1-5.4-3.3-8.8-9.7-10.2-7.4-1.6-15-.6-22.4-.9zm13 6.1c4.1.3 7.4 1 7.8 5.7.3 4.1-2.8 6-8.3 6.3-4.9.3-5.7-2.1-5.1-6.2-.9-4.3.8-6.1 5.6-5.8zM986.3 865c-5.1-2.2-11-.5-15.2 4.5-3.2 3.7-4.9 8.5-4.7 13.3.1 1.2.1 2.3.2 3.5 1.4 8.6 8.8 14.6 15.9 13.1 2.5-.5 3.8-1 1.4-3.7-6.3-7.1-6.2-7.2.8-13.9.1-.1.2-.2.4-.3 2.4-2.8 4.8-4.2 7.4-.2.4.7 1 1.4 2 1.1s.8-1.3.8-2.1c.9-6.1-3.2-12.8-9-15.3zm71.1 111.4c.1-2.3-1-3.2-3.3-3.1-4.1.2-8.3.3-12.4.5-3 .2-4.3-1.2-4.1-4.1.2-5.3.4-10.6.5-15.9.3-9.1.3-9-8.7-8.3-3.5.2-4.5 1.5-4.4 4.9.2 5.8.1 11.6.1 17.5h-.2c0 6.2.1 12.3 0 18.5-.1 3 .9 4.1 4 4 6.8-.2 13.6-.1 20.5-.1 9 0 9 0 8.3-8.7-.2-1.9-.2-3.6-.3-5.2zM910.5 790.6c7.4 1 13.5-3.7 13.3-8.3-.1-3.9-3.3-6.4-8.6-6.3-2.4 2.1-8.8-1.6-9 4-.1 3.4-.8 9.9 4.3 10.6zM989 981.3c2.1 0 3.7-.2 3.3-2.9-.5-3.4-.5-6.9-2.3-10.2-1.1 3.3-2.2 6.5-3 9.6-.5 1.7-.7 3.5 2 3.5zM1143.2 620c-5 .8-8.5 6.3-8.4 13.6.1 8.3 4.2 14 10.3 14.2s10.1-5.5 10.2-14c0-9.9-4.5-15-12.1-13.8zm-78.9 191c3.3.3 5.7-.4 5-4.4.1-2.4.7-5.1-3.2-4.6-3.4.5-7.8.1-8.2 4.6-.4 4 3.4 4.1 6.4 4.4zm151.8-.4c1.8-.6 1.5-2.3 1.6-3.6-.3-3.6-.8-7.1-3-10-.8-1.3-2.4-1.9-3.9-1.6-1.4.3-2.6 1-2.6 2.6 0 4 .7 7.9 3.3 11.1 1.2 1.4 3 2 4.6 1.5zm-205.3-178.2c2.2-2.2 7.5 2.2 7.5-3.8 0-4-4.3-8.1-7.6-7.8-3.8.3-6.4 3.9-6 8.9s4.2 1.1 6.1 2.7z"/></svg>